<svg xmlns="http://www.w3.org/2000/svg" width="40.335" height="40.335" viewBox="0 0 40.335 40.335">
  <g id="Group_2660" data-name="Group 2660" transform="translate(-1039 -4612.637)">
    <path id="Path_383" data-name="Path 383" d="M20.167,0A20.167,20.167,0,1,0,40.335,20.167,20.19,20.19,0,0,0,20.167,0Zm0,38.028a17.86,17.86,0,1,1,17.86-17.86A17.88,17.88,0,0,1,20.167,38.028Z" transform="translate(1039 4612.637)" fill="#46c2ff"/>
    <path id="Icon_awesome-instagram" data-name="Icon awesome-instagram" d="M9.835,7.03a5.044,5.044,0,1,0,5.044,5.044A5.036,5.036,0,0,0,9.835,7.03Zm0,8.323a3.279,3.279,0,1,1,3.279-3.279A3.285,3.285,0,0,1,9.835,15.352Zm6.426-8.529a1.176,1.176,0,1,1-1.176-1.176A1.174,1.174,0,0,1,16.261,6.824ZM19.6,8.018A5.822,5.822,0,0,0,18.013,3.9a5.86,5.86,0,0,0-4.122-1.589c-1.624-.092-6.492-.092-8.116,0A5.852,5.852,0,0,0,1.653,3.891,5.841,5.841,0,0,0,.064,8.013c-.092,1.624-.092,6.492,0,8.116a5.822,5.822,0,0,0,1.589,4.122A5.867,5.867,0,0,0,5.775,21.84c1.624.092,6.492.092,8.116,0a5.822,5.822,0,0,0,4.122-1.589A5.86,5.86,0,0,0,19.6,16.129c.092-1.624.092-6.488,0-8.112Zm-2.1,9.854a3.32,3.32,0,0,1-1.87,1.87c-1.295.514-4.368.4-5.8.4s-4.508.114-5.8-.4a3.32,3.32,0,0,1-1.87-1.87c-.514-1.295-.4-4.368-.4-5.8s-.114-4.508.4-5.8a3.32,3.32,0,0,1,1.87-1.87c1.295-.514,4.368-.4,5.8-.4s4.508-.114,5.8.4a3.32,3.32,0,0,1,1.87,1.87c.514,1.295.4,4.368.4,5.8S18.017,16.582,17.5,17.872Z" transform="translate(1049.525 4620.812)" fill="#46c2ff"/>
  </g>
</svg>
